<svg version="1.1" id="Layer_1" xmlns="http://www.w3.org/2000/svg" xmlns:xlink="http://www.w3.org/1999/xlink" x="0px" y="0px"
	 width="100%" viewBox="0 0 1024 1024" enable-background="new 0 0 1024 1024" xml:space="preserve">
<path fill="#000000" opacity="1.000000" stroke="none" 
	d="
M466.968658,374.962738 
	C471.097687,378.756226 471.129852,383.101166 468.825867,387.855255 
	C468.332153,388.874084 468.363342,390.134094 468.034515,391.248138 
	C465.633698,399.382172 467.054352,406.000519 475.809509,409.894470 
	C478.734680,407.807373 481.504700,405.036041 483.921112,402.102692 
	C483.918243,399.196472 480.023438,398.537720 480.707733,395.248962 
	C483.946320,393.997925 486.076050,401.472015 489.904999,396.608521 
	C492.003479,393.943054 495.544281,392.243256 494.655792,387.848663 
	C501.112061,388.866913 503.525238,383.944275 506.390808,380.206818 
	C508.726013,377.161102 510.078949,376.427795 511.771057,380.433319 
	C512.080322,381.165466 512.714417,381.843292 513.359497,382.335052 
	C515.226379,383.758240 516.381958,387.412811 519.107300,386.076752 
	C521.699097,384.806122 524.774780,382.714478 523.491882,379.022461 
	C524.859436,377.508392 526.401123,379.536102 527.532898,377.951904 
	C527.144226,377.725830 526.793701,377.353729 526.421204,377.330353 
	C520.110962,376.933960 513.801575,376.478302 507.484192,376.261322 
	C504.309296,376.152252 501.675842,374.953613 499.238373,373.136963 
	C498.231720,372.386719 497.694000,371.316193 498.516998,370.098572 
	C499.291229,368.953094 500.593964,368.616638 501.568542,369.433777 
	C509.068878,375.722931 518.296509,371.513367 526.486389,373.596252 
	C528.536865,374.117737 530.801575,373.758087 532.962402,373.891602 
	C540.245544,374.341553 540.237000,374.355316 541.606995,367.050812 
	C542.404358,362.799194 542.990906,358.488190 544.115356,354.323517 
	C545.145630,350.507568 544.058777,349.275146 540.161438,349.149811 
	C529.348389,348.802155 518.545227,348.137848 507.739685,347.570282 
	C505.604645,347.458130 502.929413,347.677490 502.980103,344.545868 
	C503.040314,340.826294 506.164703,341.803314 508.256622,341.846649 
	C518.911255,342.067139 529.561768,342.481842 540.215637,342.754211 
	C542.506714,342.812775 544.904297,343.200867 546.961670,341.618439 
	C547.652954,341.086761 548.514099,340.893433 549.299500,341.378876 
	C556.917297,346.087158 565.581665,342.628418 573.586792,344.483765 
	C576.648682,345.193420 576.914978,342.415253 577.283081,340.304382 
	C577.671326,338.078003 578.425110,336.610962 581.130554,336.859863 
	C583.702881,337.096527 584.674072,338.327362 584.378357,340.778748 
	C584.000549,343.910522 585.607117,344.766632 588.493591,344.833038 
	C595.315857,344.989777 602.131348,345.422699 608.951233,345.704926 
	C612.249573,345.841461 615.886353,345.913788 615.354126,350.539001 
	C614.867310,354.768677 611.499817,354.146790 608.375000,353.829681 
	C601.923279,353.174957 595.443420,352.802582 588.986450,352.193573 
	C585.653259,351.879150 584.117249,353.049225 583.981750,356.559357 
	C583.468445,369.862671 582.755005,383.158112 582.163086,396.458618 
	C582.007996,399.944031 581.987793,403.432648 580.921875,406.957489 
	C577.322937,407.878204 574.032349,405.954773 570.471985,406.288788 
	C568.576721,402.002380 570.543640,397.933563 570.935486,393.964386 
	C572.126709,381.897583 573.873535,369.884277 575.481018,357.860474 
	C576.268127,351.973755 575.891541,351.266449 569.903503,350.651276 
	C564.773987,350.124298 559.612610,349.912811 554.468628,349.518707 
	C552.129761,349.339508 551.037354,350.324463 551.159241,352.688629 
	C551.502075,359.337891 551.826294,365.988129 552.150024,372.638397 
	C552.232910,374.341248 552.909851,375.471252 554.761475,375.697601 
	C556.042908,375.854248 557.520142,375.821899 557.868835,378.073608 
	C550.983765,379.480743 553.783142,384.155365 554.640198,388.286957 
	C557.889465,403.950256 557.535156,419.118225 548.201172,432.949677 
	C545.587036,436.823425 542.489929,440.309967 538.849915,443.286957 
	C533.560974,447.612518 532.117554,453.142853 535.228943,459.142700 
	C537.364807,463.261353 540.107849,467.069397 542.645752,470.973175 
	C543.605530,472.449493 545.837585,473.557556 544.919312,475.589539 
	C543.906982,477.829559 541.426636,477.127136 539.525757,477.137817 
	C520.866943,477.242676 502.207733,477.273865 483.548645,477.321045 
	C479.883453,477.330322 476.178467,476.977295 472.562622,477.398682 
	C467.533600,477.984772 465.384705,475.515228 464.012970,471.157196 
	C459.715790,457.504944 455.200867,443.921417 450.822906,430.294342 
	C445.427338,413.499969 440.076599,396.691193 434.728912,379.881500 
	C434.029694,377.683655 433.174866,375.499481 433.330261,373.152710 
	C434.507874,371.357513 436.306091,371.779846 437.898315,371.767853 
	C445.061615,371.713898 452.227325,371.823578 459.388153,371.677094 
	C462.271271,371.618103 464.610291,372.348022 466.706543,374.808289 
	C467.000122,374.996979 466.968658,374.962738 466.968658,374.962738 
M537.031860,414.773438 
	C536.438354,415.357727 535.896423,416.008545 535.242798,416.515289 
	C531.589844,419.347595 530.237305,422.182770 534.798584,425.499237 
	C535.860718,426.271484 537.315063,427.414307 536.087524,429.174225 
	C534.615845,429.791962 533.677307,428.850128 533.047974,427.976196 
	C529.527039,423.086884 526.418823,424.341492 523.366638,428.437653 
	C522.873108,429.100006 522.279114,429.719574 521.628845,430.227325 
	C518.942932,432.324524 519.464783,434.134644 521.693298,436.342041 
	C523.396484,438.029022 526.049316,439.454468 525.476929,442.823944 
	C523.014343,443.002777 521.762634,441.482605 520.771118,440.094910 
	C517.780823,435.909912 514.929993,435.719147 511.941071,439.981873 
	C510.806366,441.600220 507.596436,442.484283 509.190796,445.097137 
	C510.802521,447.738525 512.808228,449.950012 516.857605,449.291962 
	C535.215820,446.308380 550.449707,430.140656 552.146057,411.537781 
	C552.311279,409.726501 552.148743,408.425964 550.606445,407.185913 
	C547.076965,404.347931 545.745239,404.798004 541.981262,410.521606 
	C543.107361,414.115448 547.846375,415.399750 548.178833,419.906830 
	C545.047729,420.253845 544.128662,417.649231 542.375854,416.419342 
	C540.908630,415.389862 540.125244,412.692230 537.031860,414.773438 
M549.568726,401.336792 
	C549.946106,402.826385 550.601990,404.058197 552.391968,404.420074 
	C553.452515,399.982941 552.466736,395.660614 551.532043,391.574921 
	C548.094116,376.546539 550.603149,378.893097 535.958496,378.089600 
	C532.972412,377.925781 530.834778,378.919006 529.834656,382.073212 
	C531.872437,384.119293 533.605835,386.471802 535.889587,388.003906 
	C539.005310,390.094177 540.305725,384.182709 543.466675,385.559570 
	C544.161743,386.609253 543.672546,387.319153 543.220215,388.006653 
	C540.286987,392.465118 541.480591,396.143860 546.589905,398.488678 
	C547.732910,399.013214 549.978027,398.084595 549.568726,401.336792 
M502.500397,437.962738 
	C504.949829,441.386780 507.267303,440.739197 509.634979,437.818542 
	C511.563538,435.439545 515.285217,433.941193 511.509155,429.807861 
	C505.545471,423.279938 505.763489,423.072479 499.629730,429.356201 
	C498.834503,430.170807 497.785583,430.826904 497.597137,432.711914 
	C498.890808,434.107391 500.451569,435.790985 502.500397,437.962738 
M511.209778,418.515106 
	C510.264038,419.722748 508.399200,420.410706 509.372070,422.603424 
	C512.310730,429.226593 517.113342,430.209686 522.207092,425.141327 
	C522.909973,424.441986 523.609863,423.738495 524.284546,423.012146 
	C525.207764,422.018250 525.106201,421.104126 524.386353,419.916840 
	C520.337158,413.237976 517.152039,412.738220 511.209778,418.515106 
M523.452637,414.044830 
	C525.042114,415.428070 526.161133,417.399323 528.320129,418.035339 
	C537.419128,411.660889 537.407227,408.915863 527.988525,402.858673 
	C526.475159,404.171570 524.975098,405.700653 523.253723,406.916260 
	C520.170776,409.093445 520.028748,411.218079 523.452637,414.044830 
M488.378174,405.446198 
	C485.907623,405.285339 478.876831,410.642365 478.632355,412.871948 
	C478.406555,414.931061 484.212830,420.219360 485.769989,419.163940 
	C488.634277,417.222626 491.748352,414.956726 492.823395,411.725220 
	C493.635406,409.284332 490.372284,407.762482 488.378174,405.446198 
M511.929779,407.437714 
	C510.139587,406.264832 509.232269,402.742767 506.472107,404.303528 
	C503.650940,405.898865 500.187561,408.235138 499.946564,411.375580 
	C499.695312,414.649780 503.334534,416.557098 506.236725,418.640869 
	C508.568665,416.469055 510.721863,414.439484 512.902588,412.440033 
	C514.830994,410.671936 513.955566,409.256592 511.929779,407.437714 
M513.468750,403.989502 
	C515.002441,405.046478 515.699707,407.620209 518.212708,406.896088 
	C523.765686,405.295990 525.451904,399.164429 521.573242,395.153870 
	C519.739502,393.257782 517.871033,391.135101 515.681763,394.372314 
	C513.873413,397.046204 507.370300,398.592743 513.468750,403.989502 
M500.915985,423.527924 
	C504.801178,419.165100 499.581177,418.017151 497.985748,415.798584 
	C496.187683,413.298248 494.510315,415.349762 493.202545,416.771790 
	C491.445099,418.682831 489.080566,420.070831 487.863922,422.801117 
	C489.668549,425.302673 491.622467,427.653259 494.763458,429.412048 
	C496.663452,427.599030 498.548737,425.800110 500.915985,423.527924 
M504.286438,400.392273 
	C499.753845,392.486572 497.457397,392.306946 491.742493,399.131958 
	C490.144165,401.040741 490.198853,402.389893 491.755951,404.255768 
	C495.821350,409.127350 496.363647,409.228638 500.817352,404.679108 
	C501.964691,403.507080 503.005798,402.231018 504.286438,400.392273 
M477.969360,432.110077 
	C477.936737,436.372009 481.595947,437.441040 483.981506,439.577728 
	C492.819122,433.033203 492.863403,431.081299 484.473145,425.878082 
	C481.990906,427.266296 480.371613,429.646973 477.969360,432.110077 
M503.973480,394.457977 
	C505.210083,395.439392 505.962952,397.164520 507.870300,397.073090 
	C512.214478,393.636169 513.287354,392.453156 515.101318,389.042664 
	C514.150452,388.018677 513.115845,386.977142 512.164734,385.864258 
	C510.479248,383.892151 508.489777,382.402069 506.668793,385.298279 
	C505.038116,387.891846 498.558502,388.965637 503.973480,394.457977 
M487.268066,441.559937 
	C489.700531,445.042206 493.637299,445.951080 497.271545,447.331573 
	C499.345276,448.119232 500.731445,446.838074 501.875641,445.325989 
	C503.123383,443.677094 501.817261,442.609039 500.897980,441.467926 
	C495.186829,434.378174 494.978607,434.358246 488.176086,440.334106 
	C487.929596,440.550659 487.708252,440.795837 487.268066,441.559937 
M523.779724,392.770294 
	C525.952393,394.177826 527.020935,398.424835 530.905334,395.380798 
	C534.594971,392.489349 534.366272,391.139191 529.650269,386.483459 
	C527.848755,384.705048 526.409973,383.903290 524.345581,386.064636 
	C522.520264,387.975800 519.929260,389.568939 523.779724,392.770294 
M541.761963,398.755646 
	C540.189941,397.360352 539.085327,395.384735 536.713318,394.683258 
	C534.622437,396.159607 532.496338,397.613739 531.527283,400.423889 
	C532.928284,401.959198 534.211243,403.460663 535.598755,404.858307 
	C536.932922,406.202209 538.207092,408.339630 540.412354,406.053741 
	C542.240723,404.158478 545.448059,402.544769 541.761963,398.755646 
M477.580414,418.007629 
	C476.906403,417.551392 476.220795,416.690735 475.560486,416.709747 
	C472.882355,416.786804 471.237885,418.895111 470.693085,420.949524 
	C469.970306,423.675323 472.112274,425.993164 473.877380,427.825836 
	C475.701538,429.719849 477.020966,427.344055 478.445801,426.459808 
	C483.107056,423.567139 481.054199,421.005646 477.580414,418.007629 
M547.976318,361.573242 
	C547.976318,359.495453 547.976318,357.417664 547.976318,355.339874 
	C547.761475,355.330475 547.546570,355.321045 547.331726,355.311646 
	C546.092346,361.569763 544.852905,367.827911 543.604126,374.133453 
	C547.393616,375.465302 548.891907,374.348816 548.658630,370.919250 
	C548.466919,368.100586 548.221558,365.285614 547.976318,361.573242 
M468.287750,414.626587 
	C469.439758,417.101471 470.989838,415.668854 471.473816,414.510376 
	C472.804474,411.325348 469.862030,410.648468 468.116241,409.097565 
	C466.873383,411.008606 467.630524,412.518951 468.287750,414.626587 
z"/>
<path fill="#000000" opacity="1.000000" stroke="none" 
	d="
M502.000061,480.667542 
	C535.948853,480.667145 569.397583,480.667145 603.076538,480.667145 
	C603.379883,485.532562 601.719727,489.363251 600.453491,493.240295 
	C599.636475,495.741913 597.281860,495.297913 595.345398,495.307007 
	C585.845825,495.351624 576.345947,495.331970 566.846191,495.331573 
	C530.846985,495.330109 494.847290,495.234039 458.849274,495.437897 
	C454.113342,495.464722 452.171478,493.804932 450.784546,489.469238 
	C436.479248,444.749390 421.913879,400.112671 407.648315,355.380280 
	C406.117584,350.580292 403.925964,348.847534 398.862579,349.047607 
	C388.712311,349.448669 378.531891,349.016571 368.369446,349.213867 
	C364.272278,349.293396 362.718781,347.879547 362.787048,343.730621 
	C362.974731,332.325531 362.065521,333.796844 372.683380,333.767944 
	C385.516296,333.733002 398.350922,333.898651 411.181488,333.727142 
	C414.967651,333.676544 416.777496,334.964966 417.951111,338.638397 
	C432.337769,383.668671 446.976929,428.618591 461.250763,473.684296 
	C462.959442,479.078979 465.287872,481.075653 471.007721,480.795929 
	C481.149658,480.299896 491.333649,480.663818 502.000061,480.667542 
z"/>
<path fill="#000000" opacity="1.000000" stroke="none" 
	d="
M581.992737,477.332489 
	C574.170349,477.327209 566.835571,477.078064 559.526611,477.405365 
	C554.785645,477.617645 551.218628,475.871338 547.884583,472.825653 
	C541.771851,467.241516 538.072571,460.375153 536.204895,452.357941 
	C535.513672,449.390808 536.006897,447.442352 538.640137,445.582153 
	C547.258362,439.493744 552.508606,430.942383 555.740967,421.035706 
	C558.259888,413.315826 564.350220,408.780731 572.729553,408.799225 
	C585.097229,408.826477 593.494995,415.840179 600.235779,425.263702 
	C604.584595,431.343231 607.146240,438.559113 611.999329,444.352936 
	C612.831970,445.347015 612.650757,446.478088 612.519226,447.669189 
	C611.682068,455.249023 608.964905,462.054626 605.045227,468.611572 
	C599.670959,477.601868 591.411865,478.073303 581.992737,477.332489 
z"/>
<path fill="#000000" opacity="1.000000" stroke="none" 
	d="
M605.314392,429.647675 
	C601.383972,421.460327 595.823242,415.143188 588.355530,410.707092 
	C584.709839,408.541351 583.486816,405.788300 583.815918,401.687012 
	C584.479980,393.413055 584.900513,385.116608 585.261353,376.822510 
	C585.427429,373.004150 587.204468,371.701660 590.932861,371.748077 
	C602.400513,371.890808 613.871948,371.853394 625.340393,371.736481 
	C628.901672,371.700195 630.219788,372.871765 629.232910,376.491547 
	C623.774414,396.512604 618.397217,416.555847 612.954224,436.581177 
	C612.750000,437.332520 612.155396,437.977783 611.592834,438.924744 
	C608.073975,436.735657 607.481201,432.858856 605.314392,429.647675 
z"/>
<path fill="#000000" opacity="1.000000" stroke="none" 
	d="
M498.215149,686.873840 
	C497.933533,693.460205 497.921722,693.140991 490.345917,693.421509 
	C485.198914,693.612122 484.714417,691.013123 484.734985,686.988892 
	C484.826874,669.017273 484.720978,651.044739 484.791290,633.072876 
	C484.801361,630.496521 483.669586,626.789368 488.229218,626.795349 
	C492.040375,626.800354 497.126404,624.748962 497.588623,632.334839 
	C503.740692,626.603699 510.556793,624.626831 518.146606,625.981506 
	C523.366699,626.913208 527.842285,629.389099 531.271790,633.563293 
	C539.185791,643.195740 539.184937,659.410095 531.257629,668.768616 
	C523.109680,678.387634 511.980072,679.365784 498.213745,671.273010 
	C498.213745,676.534363 498.213745,681.463501 498.215149,686.873840 
M498.235687,650.589111 
	C498.509644,659.431396 502.726471,665.121460 509.494507,665.781494 
	C516.908936,666.504395 522.935791,661.359863 523.729858,653.630310 
	C524.671021,644.468323 520.224121,637.827576 512.661133,637.101074 
	C504.233948,636.291565 499.304993,640.615356 498.235687,650.589111 
z"/>
<path fill="#000000" opacity="1.000000" stroke="none" 
	d="
M304.887177,627.282104 
	C306.660034,614.079407 316.255066,609.313232 329.909149,609.011658 
	C336.918335,608.856934 343.673157,611.062073 350.026794,614.271240 
	C353.085236,615.815918 353.969055,617.566467 351.789124,620.480652 
	C350.897217,621.672974 350.170258,623.011841 349.521515,624.357910 
	C348.320343,626.850037 346.795715,627.242188 344.339264,625.847961 
	C338.903259,622.762512 333.119751,620.830505 326.714661,621.263550 
	C323.286713,621.495361 320.327057,622.498230 319.436981,626.125854 
	C318.473846,630.051147 320.688232,632.586182 324.128876,633.873291 
	C330.357269,636.203308 336.777832,638.037476 342.941620,640.517395 
	C349.541077,643.172607 354.049500,647.736572 354.374725,655.412598 
	C354.829651,666.149353 349.432922,673.400452 338.723572,676.051025 
	C326.291443,679.127991 315.019348,676.107605 304.492645,669.320129 
	C302.063049,667.753540 301.422974,666.051941 303.351685,663.596985 
	C305.070618,661.409058 306.585907,659.061096 308.322601,656.597107 
	C314.094238,660.471802 319.619843,663.897461 326.242432,664.713440 
	C334.762817,665.763306 339.754059,663.783752 340.559326,659.147217 
	C341.280273,654.996216 337.742340,651.940918 329.616486,649.533386 
	C325.313354,648.258362 320.980072,647.026978 316.794586,645.425232 
	C308.748444,642.346069 304.727692,636.375488 304.887177,627.282104 
z"/>
<path fill="#000000" opacity="1.000000" stroke="none" 
	d="
M364.797974,644.000000 
	C364.795074,633.015442 364.972137,622.526489 364.712585,612.048340 
	C364.590668,607.126831 367.234222,606.617554 371.012787,606.828796 
	C374.567200,607.027527 378.659607,605.936523 378.338867,611.994263 
	C378.014984,618.111694 378.267487,624.259644 378.267487,631.291748 
	C384.124359,627.578918 389.560272,625.217163 395.973358,625.550964 
	C406.581726,626.103210 413.915405,632.842896 414.248749,643.495178 
	C414.545319,652.971924 414.249084,662.465942 414.378296,671.950134 
	C414.423553,675.271118 412.926636,676.433350 409.850067,676.253540 
	C408.523315,676.176025 407.180267,676.149475 405.858337,676.261475 
	C402.231842,676.568604 400.748077,675.020142 400.831085,671.340088 
	C400.992432,664.187622 400.946991,657.028259 400.865997,649.873108 
	C400.775818,641.902405 397.376617,637.629211 391.095184,637.349609 
	C384.068909,637.036865 378.721588,642.059326 378.380096,649.834045 
	C378.073639,656.811096 377.986816,663.824280 378.335083,670.794861 
	C378.593475,675.966858 375.889832,676.463379 371.865784,676.335632 
	C368.082825,676.215454 364.505188,676.787170 364.728729,670.957642 
	C365.066406,662.150452 364.805450,653.320374 364.797974,644.000000 
z"/>
<path fill="#000000" opacity="1.000000" stroke="none" 
	d="
M574.167908,631.057190 
	C579.112793,624.229919 585.796448,627.385254 592.227356,626.685913 
	C591.151855,630.947510 587.960449,632.770630 585.655701,635.166809 
	C575.424133,645.804260 575.380737,645.743530 583.485962,658.107117 
	C587.111023,663.636841 590.678345,669.204468 594.314697,674.820984 
	C586.701660,678.291687 580.378235,676.709900 576.382874,670.640137 
	C573.371826,666.065796 570.466064,661.422119 567.142456,656.229797 
	C562.789551,660.066589 558.529175,663.239380 559.225647,669.759644 
	C559.437073,671.739136 560.253662,674.617737 557.776855,675.600281 
	C554.675964,676.830322 551.195557,676.607056 547.978577,675.622131 
	C546.496704,675.168396 546.716553,673.417847 546.715515,672.111084 
	C546.699585,651.795227 546.738220,631.479370 546.686584,611.163635 
	C546.673096,605.860535 550.575073,607.290100 553.443848,607.087280 
	C556.593384,606.864441 559.433228,606.948181 559.356018,611.556519 
	C559.172058,622.530518 559.296692,633.509705 560.322632,645.237366 
	C564.851440,640.597351 569.380188,635.957275 574.167908,631.057190 
z"/>
<path fill="#000000" opacity="1.000000" stroke="none" 
	d="
M620.035400,645.801880 
	C621.501892,645.811584 622.512024,645.926697 623.494629,645.809692 
	C625.326599,645.591492 627.934875,646.734802 628.572998,644.026245 
	C629.247253,641.164307 627.375000,639.213135 624.892151,638.241333 
	C619.664734,636.195251 614.456360,636.966736 609.349487,638.898132 
	C607.824341,639.474854 606.321289,640.110168 605.025085,640.631409 
	C604.398376,640.166565 604.036804,640.029236 603.889465,639.770081 
	C598.940735,631.065796 599.317749,630.158081 608.910339,627.376221 
	C615.246948,625.538574 621.628967,624.935425 628.085083,626.675354 
	C636.985962,629.074280 642.179138,635.592651 642.315796,644.789246 
	C642.439270,653.102234 642.431946,661.419434 642.312927,669.732300 
	C642.282471,671.861938 643.512695,675.120239 640.421204,675.705750 
	C637.066956,676.340942 633.192505,677.644043 630.210449,674.296692 
	C629.798889,673.834717 629.381348,673.378113 628.852234,672.792358 
	C622.144836,676.845764 615.241455,678.494873 607.722290,676.152954 
	C601.089539,674.087097 596.957520,668.932495 596.751831,662.296082 
	C596.547119,655.694336 600.331909,650.090149 606.818420,647.777893 
	C610.914124,646.317871 615.215332,645.806335 620.035400,645.801880 
M614.741882,666.901245 
	C621.626526,668.466858 627.695251,665.514038 629.272705,659.884888 
	C630.144592,656.773621 629.347168,655.006348 625.807922,655.104675 
	C622.811584,655.187927 619.809570,655.110779 616.816162,655.241760 
	C613.554382,655.384277 610.893250,656.698486 610.032593,660.079041 
	C609.171509,663.460815 611.271545,665.333496 614.741882,666.901245 
z"/>
<path fill="#000000" opacity="1.000000" stroke="none" 
	d="
M722.998779,672.856628 
	C717.520935,678.393555 711.169495,678.228088 704.837769,675.847900 
	C698.450745,673.447021 696.136536,667.863586 695.862427,661.523987 
	C695.582581,655.051147 695.777954,648.556396 695.824585,642.071655 
	C695.843140,639.492004 695.469543,637.393311 692.185730,637.363281 
	C688.689758,637.331360 688.890625,634.720093 688.952148,632.377625 
	C689.008179,630.242249 688.823730,627.702820 692.036194,627.741943 
	C695.246948,627.781128 696.012390,626.000854 695.831665,623.273621 
	C695.787781,622.611755 695.831848,621.943787 695.841370,621.278687 
	C695.940735,614.359802 700.270264,611.510803 706.784058,614.007202 
	C708.273804,614.578186 708.782227,615.699219 708.899902,617.066467 
	C709.027832,618.553284 709.148193,620.076721 708.968750,621.547302 
	C708.386902,626.317322 710.301514,628.330444 715.143066,627.719788 
	C718.879028,627.248718 721.525146,627.893677 721.407043,632.842224 
	C721.313354,636.767212 719.995300,638.083923 716.174927,638.119385 
	C709.131165,638.184692 709.115417,638.352112 709.109375,645.334167 
	C709.105103,650.322021 709.100830,655.310974 709.200195,660.297363 
	C709.266174,663.607483 711.139160,666.517822 714.323975,665.495544 
	C721.416748,663.219055 721.834534,668.082581 722.998779,672.856628 
z"/>
<path fill="#000000" opacity="1.000000" stroke="none" 
	d="
M584.868530,506.074554 
	C591.554443,513.942444 592.034302,522.992432 586.395508,530.022522 
	C581.611877,535.986633 572.625427,537.857239 565.550720,534.361694 
	C556.370483,529.825867 553.146851,518.567139 558.464172,509.611084 
	C563.724121,500.751526 575.143250,499.095612 584.868530,506.074554 
z"/>
<path fill="#000000" opacity="1.000000" stroke="none" 
	d="
M473.592102,534.825195 
	C464.189270,529.732788 460.704620,521.284851 464.116028,512.556030 
	C467.312073,504.378174 475.873993,499.998535 484.407257,502.176361 
	C493.606934,504.524323 499.304718,514.331299 496.807617,523.519897 
	C494.092926,533.509216 484.759247,538.193237 473.592102,534.825195 
z"/>
<path fill="#000000" opacity="1.000000" stroke="none" 
	d="
M468.305115,655.822876 
	C468.460632,660.610962 467.066345,665.499634 474.235077,666.058472 
	C476.502808,666.235291 476.680664,670.124084 477.028595,672.542053 
	C477.363708,674.871094 475.359894,675.520081 473.632263,676.190369 
	C463.688690,680.048462 455.674835,674.803223 455.615082,664.188171 
	C455.516754,646.717712 455.721771,629.244934 455.532135,611.776001 
	C455.481384,607.101257 457.906738,606.681946 461.493896,606.817383 
	C465.039215,606.951416 468.506836,606.329651 468.407684,611.923340 
	C468.151276,626.395020 468.311249,640.874023 468.305115,655.822876 
z"/>
<path fill="#000000" opacity="1.000000" stroke="none" 
	d="
M471.860870,369.899384 
	C464.597443,354.055023 468.270538,339.360321 476.760284,325.293457 
	C482.604309,315.610321 490.387360,312.285645 500.619843,314.916626 
	C501.007965,315.003052 500.973267,314.976471 500.973267,314.976471 
	C503.939728,317.767273 506.479889,320.793762 506.657440,325.146362 
	C506.737946,327.120514 506.238922,328.915619 504.317841,329.719604 
	C501.599792,330.857086 499.501068,329.198700 497.546875,327.655090 
	C496.116791,326.525513 494.428131,325.075073 495.109009,323.099091 
	C496.143799,320.095856 498.416626,321.718018 501.020081,323.190460 
	C496.995667,317.888092 492.594543,318.196167 489.872131,323.173187 
	C486.525726,329.290894 488.652924,335.163086 491.244568,340.853485 
	C493.380554,345.543457 495.989685,350.023560 498.017853,354.755829 
	C501.737061,363.433655 498.012482,372.386658 489.524017,375.823730 
	C483.163696,378.399078 478.248840,375.592010 473.189087,371.163330 
	C472.440277,370.458099 472.150574,370.178741 471.860870,369.899384 
M475.127930,342.736847 
	C474.732758,345.856750 474.125458,348.967529 473.990387,352.098663 
	C473.767609,357.263214 473.938477,362.408264 477.035645,366.941895 
	C479.407379,370.413605 482.416199,372.298553 486.755676,371.182892 
	C491.219177,370.035278 493.269135,366.897614 493.739746,362.543793 
	C493.975616,360.361938 493.568390,358.242004 492.724945,356.214783 
	C488.804565,346.791718 481.590057,338.616577 482.397919,327.357727 
	C478.583374,331.863007 476.857849,336.857117 475.127930,342.736847 
z"/>
<path fill="#000000" opacity="1.000000" stroke="none" 
	d="
M668.070312,629.397339 
	C668.197998,630.561584 668.275940,631.370483 668.432251,632.993591 
	C671.822388,629.382080 675.251587,626.854126 679.602417,625.975098 
	C683.387939,625.210266 685.445557,625.964233 685.498962,630.618591 
	C685.555664,635.553406 684.950439,638.334106 678.973328,638.991089 
	C672.273621,639.727600 668.527466,645.166138 668.354065,652.138550 
	C668.200928,658.299316 667.950562,664.488770 668.366455,670.623291 
	C668.746765,676.234375 665.593445,676.200989 661.533325,676.356445 
	C656.967285,676.531250 655.431335,674.956970 655.531189,670.342407 
	C655.801331,657.853394 655.574158,645.354309 655.688477,632.860535 
	C655.707764,630.757263 654.507141,627.276611 657.730408,627.061218 
	C661.118164,626.834900 665.399536,624.471008 668.070312,629.397339 
z"/>
<path fill="#000000" opacity="1.000000" stroke="none" 
	d="
M435.884857,676.231812 
	C427.812195,676.197021 427.798981,676.197021 427.789551,668.441406 
	C427.774780,656.282471 428.034088,644.115784 427.667694,631.967834 
	C427.488861,626.039917 431.046356,626.794556 434.764008,626.614746 
	C438.830048,626.417969 441.362122,626.989868 441.250000,632.117554 
	C440.966003,645.103149 441.089294,658.099487 441.191193,671.090393 
	C441.218567,674.581848 440.137115,676.558960 435.884857,676.231812 
z"/>
<path fill="#000000" opacity="1.000000" stroke="none" 
	d="
M428.508850,607.725403 
	C435.035278,603.398376 441.640625,605.865234 442.129425,612.413147 
	C442.463654,616.890869 438.810211,621.050903 434.479279,621.124023 
	C430.182800,621.196594 426.780090,617.679260 426.691559,613.155273 
	C426.654358,611.254822 427.186707,609.572083 428.508850,607.725403 
z"/>
<path fill="#000000" opacity="1.000000" stroke="none" 
	d="
M444.568237,345.888428 
	C442.567505,345.615265 440.438049,345.875275 440.751404,343.374420 
	C440.961548,341.696960 442.621155,341.757782 443.935669,341.690979 
	C448.228790,341.472839 452.522369,341.250763 456.818359,341.108978 
	C458.513916,341.053009 460.316925,341.138336 460.308716,343.539673 
	C460.301056,345.781952 458.724335,346.218201 456.912506,346.186279 
	C452.941437,346.116394 448.971191,346.001099 444.568237,345.888428 
z"/>
<path fill="#000000" opacity="1.000000" stroke="none" 
	d="
M585.003845,332.960999 
	C582.552795,335.236603 580.334534,335.456696 578.272705,333.065765 
	C576.910095,331.485687 576.790222,329.708893 578.097351,328.043701 
	C579.414673,326.365631 581.317566,326.170654 583.078369,326.962738 
	C585.536133,328.068237 586.549500,329.994293 585.003845,332.960999 
z"/>
<path fill="#000000" opacity="1.000000" stroke="none" 
	d="
M474.238007,326.559357 
	C473.309113,326.938171 472.634491,327.215546 472.027161,327.109039 
	C470.447266,326.831940 469.197144,326.011383 469.048401,324.252838 
	C468.953735,323.133942 469.623352,322.295258 470.693298,322.062073 
	C472.388550,321.692596 473.541168,322.662384 474.452728,323.953308 
	C474.976074,324.694427 474.987213,325.491669 474.238007,326.559357 
z"/>
<path fill="#000000" opacity="1.000000" stroke="none" 
	d="
M485.122803,310.086182 
	C485.373932,308.194580 486.182983,307.220673 487.828308,307.760864 
	C489.526276,308.318298 489.665131,309.993011 489.858337,311.438904 
	C490.005157,312.537598 489.307526,313.466492 488.231171,313.592407 
	C485.978394,313.855927 485.660645,311.998688 485.122803,310.086182 
z"/>
<path fill="#000000" opacity="1.000000" stroke="none" 
	d="
M501.025940,315.015625 
	C500.967834,314.883514 500.895233,314.736847 500.815216,314.594360 
	C499.436737,312.139618 500.083801,310.162689 502.400146,308.794006 
	C503.336060,308.240997 504.509399,308.655762 504.826569,309.709259 
	C505.660675,312.480103 504.165436,314.000153 501.328522,314.903564 
	C500.973267,314.976471 501.007965,315.003052 501.025940,315.015625 
z"/>
<path fill="#000000" opacity="1.000000" stroke="none" 
	d="
M499.145416,348.806885 
	C500.910828,348.093170 502.441040,347.546722 503.285431,349.454865 
	C503.850281,350.731232 503.156311,351.696747 502.008636,352.327545 
	C500.974335,352.896088 499.846283,353.537720 498.752594,352.689545 
	C497.215820,351.497711 497.375977,350.178955 499.145416,348.806885 
z"/>
<path fill="#000000" opacity="1.000000" stroke="none" 
	d="
M475.288452,315.978027 
	C477.927368,316.635895 479.816620,317.830963 478.629730,320.512054 
	C477.989716,321.957855 476.308258,321.682678 475.176361,320.766144 
	C473.435425,319.356476 472.353668,317.748291 475.288452,315.978027 
z"/>
<path fill="#000000" opacity="1.000000" stroke="none" 
	d="
M487.076569,379.354065 
	C488.663605,376.754578 490.103516,377.124268 491.093689,379.336761 
	C491.662628,380.608032 492.358917,382.594238 490.470856,383.168762 
	C487.739899,383.999725 487.269714,381.771790 487.076569,379.354065 
z"/>
<path fill="#000000" opacity="1.000000" stroke="none" 
	d="
M510.691376,316.580627 
	C509.010742,318.161163 507.320862,319.973694 505.687256,317.468170 
	C504.717285,315.980499 506.191589,314.585785 507.564972,313.988037 
	C509.622894,313.092316 511.213593,313.419006 510.691376,316.580627 
z"/>
<path fill="#000000" opacity="1.000000" stroke="none" 
	d="
M500.380737,357.182556 
	C501.998016,355.054413 503.799255,354.606415 505.554443,356.284027 
	C506.565857,357.250763 506.135254,358.539185 504.863770,359.083801 
	C502.963593,359.897705 500.963654,360.498840 500.380737,357.182556 
z"/>
<path fill="#000000" opacity="1.000000" stroke="none" 
	d="
M471.495209,369.926208 
	C472.150574,370.178741 472.440277,370.458099 472.931183,370.963684 
	C472.171539,373.657135 470.898743,375.697723 467.348022,375.052002 
	C466.968658,374.962738 467.000122,374.996979 467.016754,375.013489 
	C466.453552,371.768280 468.331451,370.489410 471.495209,369.926208 
z"/>
<path fill="#000000" opacity="1.000000" stroke="none" 
	d="
M473.260162,377.194763 
	C474.485107,375.872040 475.524292,374.511566 477.060150,376.077454 
	C477.991577,377.027039 477.563324,378.228638 476.972809,379.240875 
	C476.382782,380.252258 475.559326,381.200256 474.262756,380.877045 
	C472.292938,380.386017 472.321014,379.005615 473.260162,377.194763 
z"/>
<path fill="#000000" opacity="1.000000" stroke="none" 
	d="
M492.995544,308.377747 
	C493.758667,306.676056 494.730255,305.724274 496.208679,306.647217 
	C497.514709,307.462524 497.369019,308.935638 497.083740,310.249451 
	C496.858215,311.287964 496.181519,312.107758 495.035095,312.022339 
	C493.007050,311.871185 492.895477,310.327026 492.995544,308.377747 
z"/>
<path fill="#000000" opacity="1.000000" stroke="none" 
	d="
M468.654541,365.002014 
	C468.777496,365.670105 468.843201,366.050476 468.696869,366.312500 
	C467.655060,368.178162 466.026703,368.823273 464.095642,368.002197 
	C463.095642,367.577026 462.770752,366.374481 463.447113,365.450348 
	C464.806610,363.592773 466.509583,362.961945 468.654541,365.002014 
z"/>
<path fill="#000000" opacity="1.000000" stroke="none" 
	d="
M461.472595,359.797913 
	C461.606415,356.586487 463.542633,356.483551 465.624542,357.036560 
	C466.921143,357.380981 467.586975,358.595673 466.704559,359.716003 
	C465.297211,361.502808 463.484955,361.866089 461.472595,359.797913 
z"/>
<path fill="#000000" opacity="1.000000" stroke="none" 
	d="
M463.822815,354.098755 
	C461.805573,353.830109 460.609741,353.106628 461.031830,351.204620 
	C461.334229,349.842010 462.508087,349.606598 463.707886,349.611389 
	C464.914917,349.616180 466.070892,349.938629 466.489716,351.174500 
	C467.170837,353.184326 465.705078,353.692963 463.822815,354.098755 
z"/>
<path fill="#000000" opacity="1.000000" stroke="none" 
	d="
M463.564026,336.667816 
	C463.824524,336.244446 463.922882,336.086456 464.063446,336.024933 
	C466.229645,335.077240 467.961243,335.669800 468.891541,337.785126 
	C469.339996,338.804901 468.531189,339.806061 467.458862,339.912292 
	C465.351349,340.121155 463.472351,339.730194 463.564026,336.667816 
z"/>
<path fill="#000000" opacity="1.000000" stroke="none" 
	d="
M506.357178,332.808289 
	C507.767975,334.554749 508.702362,336.237396 506.441193,337.460480 
	C504.964203,338.259430 503.940338,337.163025 503.591095,335.777222 
	C503.091522,333.794556 503.267609,332.119232 506.357178,332.808289 
z"/>
<path fill="#000000" opacity="1.000000" stroke="none" 
	d="
M512.329773,324.341736 
	C510.455017,324.854187 508.928436,324.896759 508.210815,323.225525 
	C507.752655,322.158508 508.608337,321.357330 509.565887,320.970245 
	C510.792999,320.474213 512.178162,320.093323 513.274231,321.098755 
	C514.598206,322.313263 514.035095,323.399139 512.329773,324.341736 
z"/>
<path fill="#000000" opacity="1.000000" stroke="none" 
	d="
M480.192444,311.304230 
	C480.858978,311.186676 481.226929,311.137207 481.504730,311.272644 
	C483.345886,312.170074 484.453766,313.548157 483.629547,315.645599 
	C483.196533,316.747498 481.997894,316.875702 481.084290,316.286102 
	C479.258820,315.108093 477.955963,313.651428 480.192444,311.304230 
z"/>
<path fill="#000000" opacity="1.000000" stroke="none" 
	d="
M496.348267,375.095428 
	C497.953552,376.681793 499.255585,378.370667 496.967407,379.691315 
	C495.083130,380.778839 493.857239,379.049347 493.381897,377.466187 
	C492.724365,375.276398 493.853058,374.414825 496.348267,375.095428 
z"/>
<path fill="#000000" opacity="1.000000" stroke="none" 
	d="
M496.518890,342.007568 
	C498.294189,341.726318 499.556396,341.986816 499.730042,343.674164 
	C499.867676,345.011658 498.834229,345.682404 497.741882,346.112854 
	C496.798401,346.484558 495.741089,346.573029 495.086182,345.654510 
	C493.970215,344.089355 494.648346,342.940369 496.518890,342.007568 
z"/>
<path fill="#000000" opacity="1.000000" stroke="none" 
	d="
M501.601379,333.839539 
	C500.458527,336.114624 498.998535,337.130493 497.368500,335.084198 
	C496.305969,333.750305 497.022797,332.075165 498.459717,331.324829 
	C500.522095,330.247925 501.458801,331.470367 501.601379,333.839539 
z"/>
<path fill="#000000" opacity="1.000000" stroke="none" 
	d="
M479.821350,381.535583 
	C479.957245,379.236389 480.361877,377.328979 482.926147,378.319489 
	C484.362030,378.874084 484.433655,380.421204 483.759888,381.658295 
	C482.690277,383.622223 481.337189,384.279449 479.821350,381.535583 
z"/>
<path fill="#000000" opacity="1.000000" stroke="none" 
	d="
M501.849243,362.987366 
	C504.058716,362.687347 506.070679,362.559967 506.018829,365.169739 
	C505.986755,366.784607 504.546661,367.259460 503.148041,366.839691 
	C501.301117,366.285339 499.621704,365.441833 501.849243,362.987366 
z"/>
<path fill="#000000" opacity="1.000000" stroke="none" 
	d="
M462.261322,345.508057 
	C462.027344,342.282379 463.988312,342.519012 465.780457,342.992432 
	C467.013062,343.318024 467.723816,344.545471 466.991913,345.708282 
	C465.670837,347.807098 464.005493,347.086884 462.261322,345.508057 
z"/>
<path fill="#000000" opacity="1.000000" stroke="none" 
	d="
M491.482758,337.332336 
	C492.688263,335.440765 494.139954,334.522339 495.670990,336.105103 
	C496.772247,337.243622 496.153381,338.674164 494.821259,339.424530 
	C492.927246,340.491455 491.645721,339.998596 491.482758,337.332336 
z"/>
<path fill="#000000" opacity="1.000000" stroke="none" 
	d="
M508.417908,330.714355 
	C507.410797,327.939117 508.779236,327.467590 510.769226,327.781525 
	C512.232727,328.012390 513.455261,329.024658 512.947449,330.477509 
	C512.030090,333.102325 510.254517,332.117584 508.417908,330.714355 
z"/>
<path fill="#000000" opacity="1.000000" stroke="none" 
	d="
M491.883484,363.476013 
	C490.802795,367.173645 488.951324,369.622742 485.202759,369.640045 
	C481.716217,369.656067 479.055969,367.950134 477.743439,364.710693 
	C473.734070,354.815216 475.732758,345.308105 480.136597,335.723602 
	C483.266083,345.304199 491.659332,352.391205 491.883484,363.476013 
z"/>
</svg>